# Tiled2Unity generated file. Do not modify by hand.
# Wavefront file for 'house_mesh_0005.obj'

# Vertices (Count = 12)
v -1.92 -1.28 0
v -2.24 -1.28 0
v -2.24 -0.96 0
v -1.92 -0.96 0
v -2.24 -1.28 0
v -2.56 -1.28 0
v -2.56 -0.96 0
v -2.24 -0.96 0
v -2.56 -1.28 0
v -2.88 -1.28 0
v -2.88 -0.96 0
v -2.56 -0.96 0

# Texture cooridinates (Count = 8)
vt 0.5 0.5714285
vt 0.6666667 0.5714285
vt 0.6666667 0.7142857
vt 0.5 0.7142857
vt 0.8333333 0.5714285
vt 0.8333333 0.7142857
vt 1 0.5714285
vt 1 0.7142857

# Normal
vn 0 0 -1

# Mesh description
g house_mesh_0005

# Faces
f 1/1/1 2/2/1 3/3/1 4/4/1
f 5/2/1 6/5/1 7/6/1 8/3/1
f 9/5/1 10/7/1 11/8/1 12/6/1

