# Tiled2Unity generated file. Do not modify by hand.
# Wavefront file for 'house_mesh_0004.obj'

# Vertices (Count = 32)
v -3.52 -0.96 0
v -3.84 -0.96 0
v -3.84 -0.64 0
v -3.52 -0.64 0
v -3.52 -1.28 0
v -3.84 -1.28 0
v -3.84 -0.96 0
v -3.52 -0.96 0
v -1.28 -1.6 0
v -1.6 -1.6 0
v -1.6 -1.28 0
v -1.28 -1.28 0
v -1.6 -1.6 0
v -1.92 -1.6 0
v -1.92 -1.28 0
v -1.6 -1.28 0
v -1.28 -1.92 0
v -1.6 -1.92 0
v -1.6 -1.6 0
v -1.28 -1.6 0
v -1.6 -1.92 0
v -1.92 -1.92 0
v -1.92 -1.6 0
v -1.6 -1.6 0
v -1.28 -2.24 0
v -1.6 -2.24 0
v -1.6 -1.92 0
v -1.28 -1.92 0
v -1.6 -2.24 0
v -1.92 -2.24 0
v -1.92 -1.92 0
v -1.6 -1.92 0

# Texture cooridinates (Count = 18)
vt 0.5454546 0.6
vt 0.6363636 0.6
vt 0.6363636 0.8
vt 0.5454546 0.8
vt 0.5454546 0.4
vt 0.6363636 0.4
vt 0 0.8
vt 0.09090909 0.8
vt 0.09090909 1
vt 0 1
vt 0.1818182 0.8
vt 0.1818182 1
vt 0 0.6
vt 0.09090909 0.6
vt 0.1818182 0.6
vt 0 0.4
vt 0.09090909 0.4
vt 0.1818182 0.4

# Normal
vn 0 0 -1

# Mesh description
g house_mesh_0004

# Faces
f 1/1/1 2/2/1 3/3/1 4/4/1
f 5/5/1 6/6/1 7/2/1 8/1/1
f 9/7/1 10/8/1 11/9/1 12/10/1
f 13/8/1 14/11/1 15/12/1 16/9/1
f 17/13/1 18/14/1 19/8/1 20/7/1
f 21/14/1 22/15/1 23/11/1 24/8/1
f 25/16/1 26/17/1 27/14/1 28/13/1
f 29/17/1 30/18/1 31/15/1 32/14/1

