# Tiled2Unity generated file. Do not modify by hand.
# Wavefront file for 'grad_mesh_0004.obj'

# Vertices (Count = 320)
v 0 -0.32 0
v -0.32 -0.32 0
v -0.32 0 0
v 0 0 0
v -0.32 -0.32 0
v -0.64 -0.32 0
v -0.64 0 0
v -0.32 0 0
v -0.64 -0.32 0
v -0.96 -0.32 0
v -0.96 0 0
v -0.64 0 0
v -0.96 -0.32 0
v -1.28 -0.32 0
v -1.28 0 0
v -0.96 0 0
v -1.28 -0.32 0
v -1.6 -0.32 0
v -1.6 0 0
v -1.28 0 0
v -1.6 -0.32 0
v -1.92 -0.32 0
v -1.92 0 0
v -1.6 0 0
v -1.92 -0.32 0
v -2.24 -0.32 0
v -2.24 0 0
v -1.92 0 0
v -2.24 -0.32 0
v -2.56 -0.32 0
v -2.56 0 0
v -2.24 0 0
v -2.56 -0.32 0
v -2.88 -0.32 0
v -2.88 0 0
v -2.56 0 0
v -2.88 -0.32 0
v -3.2 -0.32 0
v -3.2 0 0
v -2.88 0 0
v -3.2 -0.32 0
v -3.52 -0.32 0
v -3.52 0 0
v -3.2 0 0
v -3.52 -0.32 0
v -3.84 -0.32 0
v -3.84 0 0
v -3.52 0 0
v -3.84 -0.32 0
v -4.16 -0.32 0
v -4.16 0 0
v -3.84 0 0
v -4.16 -0.32 0
v -4.48 -0.32 0
v -4.48 0 0
v -4.16 0 0
v -4.48 -0.32 0
v -4.8 -0.32 0
v -4.8 0 0
v -4.48 0 0
v -4.8 -0.32 0
v -5.12 -0.32 0
v -5.12 0 0
v -4.8 0 0
v -5.12 -0.32 0
v -5.44 -0.32 0
v -5.44 0 0
v -5.12 0 0
v -5.44 -0.32 0
v -5.76 -0.32 0
v -5.76 0 0
v -5.44 0 0
v -5.76 -0.32 0
v -6.08 -0.32 0
v -6.08 0 0
v -5.76 0 0
v -6.08 -0.32 0
v -6.4 -0.32 0
v -6.4 0 0
v -6.08 0 0
v -6.4 -0.32 0
v -6.72 -0.32 0
v -6.72 0 0
v -6.4 0 0
v -6.72 -0.32 0
v -7.04 -0.32 0
v -7.04 0 0
v -6.72 0 0
v -7.04 -0.32 0
v -7.36 -0.32 0
v -7.36 0 0
v -7.04 0 0
v -7.36 -0.32 0
v -7.68 -0.32 0
v -7.68 0 0
v -7.36 0 0
v 0 -0.64 0
v -0.32 -0.64 0
v -0.32 -0.32 0
v 0 -0.32 0
v -7.36 -0.64 0
v -7.68 -0.64 0
v -7.68 -0.32 0
v -7.36 -0.32 0
v 0 -0.96 0
v -0.32 -0.96 0
v -0.32 -0.64 0
v 0 -0.64 0
v -7.36 -0.96 0
v -7.68 -0.96 0
v -7.68 -0.64 0
v -7.36 -0.64 0
v 0 -1.28 0
v -0.32 -1.28 0
v -0.32 -0.96 0
v 0 -0.96 0
v -7.36 -1.28 0
v -7.68 -1.28 0
v -7.68 -0.96 0
v -7.36 -0.96 0
v 0 -1.6 0
v -0.32 -1.6 0
v -0.32 -1.28 0
v 0 -1.28 0
v -7.36 -1.6 0
v -7.68 -1.6 0
v -7.68 -1.28 0
v -7.36 -1.28 0
v 0 -1.92 0
v -0.32 -1.92 0
v -0.32 -1.6 0
v 0 -1.6 0
v -7.36 -1.92 0
v -7.68 -1.92 0
v -7.68 -1.6 0
v -7.36 -1.6 0
v 0 -2.24 0
v -0.32 -2.24 0
v -0.32 -1.92 0
v 0 -1.92 0
v -7.36 -2.24 0
v -7.68 -2.24 0
v -7.68 -1.92 0
v -7.36 -1.92 0
v 0 -2.56 0
v -0.32 -2.56 0
v -0.32 -2.24 0
v 0 -2.24 0
v -7.36 -2.56 0
v -7.68 -2.56 0
v -7.68 -2.24 0
v -7.36 -2.24 0
v 0 -2.88 0
v -0.32 -2.88 0
v -0.32 -2.56 0
v 0 -2.56 0
v -7.36 -2.88 0
v -7.68 -2.88 0
v -7.68 -2.56 0
v -7.36 -2.56 0
v -7.36 -3.2 0
v -7.68 -3.2 0
v -7.68 -2.88 0
v -7.36 -2.88 0
v -7.36 -3.52 0
v -7.68 -3.52 0
v -7.68 -3.2 0
v -7.36 -3.2 0
v 0 -3.84 0
v -0.32 -3.84 0
v -0.32 -3.52 0
v 0 -3.52 0
v -7.36 -3.84 0
v -7.68 -3.84 0
v -7.68 -3.52 0
v -7.36 -3.52 0
v 0 -4.16 0
v -0.32 -4.16 0
v -0.32 -3.84 0
v 0 -3.84 0
v -7.36 -4.16 0
v -7.68 -4.16 0
v -7.68 -3.84 0
v -7.36 -3.84 0
v 0 -4.48 0
v -0.32 -4.48 0
v -0.32 -4.16 0
v 0 -4.16 0
v -7.36 -4.48 0
v -7.68 -4.48 0
v -7.68 -4.16 0
v -7.36 -4.16 0
v 0 -4.8 0
v -0.32 -4.8 0
v -0.32 -4.48 0
v 0 -4.48 0
v -7.36 -4.8 0
v -7.68 -4.8 0
v -7.68 -4.48 0
v -7.36 -4.48 0
v 0 -5.12 0
v -0.32 -5.12 0
v -0.32 -4.8 0
v 0 -4.8 0
v -7.36 -5.12 0
v -7.68 -5.12 0
v -7.68 -4.8 0
v -7.36 -4.8 0
v 0 -5.44 0
v -0.32 -5.44 0
v -0.32 -5.12 0
v 0 -5.12 0
v -7.36 -5.44 0
v -7.68 -5.44 0
v -7.68 -5.12 0
v -7.36 -5.12 0
v 0 -5.76 0
v -0.32 -5.76 0
v -0.32 -5.44 0
v 0 -5.44 0
v -7.36 -5.76 0
v -7.68 -5.76 0
v -7.68 -5.44 0
v -7.36 -5.44 0
v -7.36 -6.08 0
v -7.68 -6.08 0
v -7.68 -5.76 0
v -7.36 -5.76 0
v -0.32 -6.4 0
v -0.64 -6.4 0
v -0.64 -6.08 0
v -0.32 -6.08 0
v -0.64 -6.4 0
v -0.96 -6.4 0
v -0.96 -6.08 0
v -0.64 -6.08 0
v -0.96 -6.4 0
v -1.28 -6.4 0
v -1.28 -6.08 0
v -0.96 -6.08 0
v -1.28 -6.4 0
v -1.6 -6.4 0
v -1.6 -6.08 0
v -1.28 -6.08 0
v -1.6 -6.4 0
v -1.92 -6.4 0
v -1.92 -6.08 0
v -1.6 -6.08 0
v -1.92 -6.4 0
v -2.24 -6.4 0
v -2.24 -6.08 0
v -1.92 -6.08 0
v -2.24 -6.4 0
v -2.56 -6.4 0
v -2.56 -6.08 0
v -2.24 -6.08 0
v -2.56 -6.4 0
v -2.88 -6.4 0
v -2.88 -6.08 0
v -2.56 -6.08 0
v -2.88 -6.4 0
v -3.2 -6.4 0
v -3.2 -6.08 0
v -2.88 -6.08 0
v -3.2 -6.4 0
v -3.52 -6.4 0
v -3.52 -6.08 0
v -3.2 -6.08 0
v -3.52 -6.4 0
v -3.84 -6.4 0
v -3.84 -6.08 0
v -3.52 -6.08 0
v -3.84 -6.4 0
v -4.16 -6.4 0
v -4.16 -6.08 0
v -3.84 -6.08 0
v -4.16 -6.4 0
v -4.48 -6.4 0
v -4.48 -6.08 0
v -4.16 -6.08 0
v -4.48 -6.4 0
v -4.8 -6.4 0
v -4.8 -6.08 0
v -4.48 -6.08 0
v -4.8 -6.4 0
v -5.12 -6.4 0
v -5.12 -6.08 0
v -4.8 -6.08 0
v -5.12 -6.4 0
v -5.44 -6.4 0
v -5.44 -6.08 0
v -5.12 -6.08 0
v -5.44 -6.4 0
v -5.76 -6.4 0
v -5.76 -6.08 0
v -5.44 -6.08 0
v -5.76 -6.4 0
v -6.08 -6.4 0
v -6.08 -6.08 0
v -5.76 -6.08 0
v -6.08 -6.4 0
v -6.4 -6.4 0
v -6.4 -6.08 0
v -6.08 -6.08 0
v -6.4 -6.4 0
v -6.72 -6.4 0
v -6.72 -6.08 0
v -6.4 -6.08 0
v -6.72 -6.4 0
v -7.04 -6.4 0
v -7.04 -6.08 0
v -6.72 -6.08 0
v -7.04 -6.4 0
v -7.36 -6.4 0
v -7.36 -6.08 0
v -7.04 -6.08 0
v -7.36 -6.4 0
v -7.68 -6.4 0
v -7.68 -6.08 0
v -7.36 -6.08 0

# Texture cooridinates (Count = 8)
vt 0.2941177 0.6363636
vt 0.3529412 0.6363636
vt 0.3529412 0.7272727
vt 0.2941177 0.7272727
vt 0.2941177 0.5454545
vt 0.3529412 0.5454545
vt 0.2941177 0.4545454
vt 0.3529412 0.4545454

# Normal
vn 0 0 -1

# Mesh description
g grad_mesh_0004

# Faces
f 1/1/1 2/2/1 3/3/1 4/4/1
f 5/5/1 6/6/1 7/2/1 8/1/1
f 9/5/1 10/6/1 11/2/1 12/1/1
f 13/5/1 14/6/1 15/2/1 16/1/1
f 17/5/1 18/6/1 19/2/1 20/1/1
f 21/5/1 22/6/1 23/2/1 24/1/1
f 25/5/1 26/6/1 27/2/1 28/1/1
f 29/5/1 30/6/1 31/2/1 32/1/1
f 33/5/1 34/6/1 35/2/1 36/1/1
f 37/5/1 38/6/1 39/2/1 40/1/1
f 41/5/1 42/6/1 43/2/1 44/1/1
f 45/5/1 46/6/1 47/2/1 48/1/1
f 49/5/1 50/6/1 51/2/1 52/1/1
f 53/5/1 54/6/1 55/2/1 56/1/1
f 57/5/1 58/6/1 59/2/1 60/1/1
f 61/5/1 62/6/1 63/2/1 64/1/1
f 65/5/1 66/6/1 67/2/1 68/1/1
f 69/5/1 70/6/1 71/2/1 72/1/1
f 73/5/1 74/6/1 75/2/1 76/1/1
f 77/5/1 78/6/1 79/2/1 80/1/1
f 81/5/1 82/6/1 83/2/1 84/1/1
f 85/5/1 86/6/1 87/2/1 88/1/1
f 89/5/1 90/6/1 91/2/1 92/1/1
f 93/5/1 94/6/1 95/2/1 96/1/1
f 97/1/1 98/2/1 99/3/1 100/4/1
f 101/5/1 102/6/1 103/2/1 104/1/1
f 105/1/1 106/2/1 107/3/1 108/4/1
f 109/5/1 110/6/1 111/2/1 112/1/1
f 113/1/1 114/2/1 115/3/1 116/4/1
f 117/5/1 118/6/1 119/2/1 120/1/1
f 121/5/1 122/6/1 123/2/1 124/1/1
f 125/5/1 126/6/1 127/2/1 128/1/1
f 129/7/1 130/8/1 131/6/1 132/5/1
f 133/5/1 134/6/1 135/2/1 136/1/1
f 137/5/1 138/6/1 139/2/1 140/1/1
f 141/5/1 142/6/1 143/2/1 144/1/1
f 145/5/1 146/6/1 147/2/1 148/1/1
f 149/5/1 150/6/1 151/2/1 152/1/1
f 153/5/1 154/6/1 155/2/1 156/1/1
f 157/5/1 158/6/1 159/2/1 160/1/1
f 161/5/1 162/6/1 163/2/1 164/1/1
f 165/5/1 166/6/1 167/2/1 168/1/1
f 169/7/1 170/8/1 171/6/1 172/5/1
f 173/5/1 174/6/1 175/2/1 176/1/1
f 177/7/1 178/8/1 179/6/1 180/5/1
f 181/5/1 182/6/1 183/2/1 184/1/1
f 185/7/1 186/8/1 187/6/1 188/5/1
f 189/5/1 190/6/1 191/2/1 192/1/1
f 193/7/1 194/8/1 195/6/1 196/5/1
f 197/5/1 198/6/1 199/2/1 200/1/1
f 201/7/1 202/8/1 203/6/1 204/5/1
f 205/5/1 206/6/1 207/2/1 208/1/1
f 209/5/1 210/6/1 211/2/1 212/1/1
f 213/5/1 214/6/1 215/2/1 216/1/1
f 217/7/1 218/8/1 219/6/1 220/5/1
f 221/5/1 222/6/1 223/2/1 224/1/1
f 225/5/1 226/6/1 227/2/1 228/1/1
f 229/5/1 230/6/1 231/2/1 232/1/1
f 233/5/1 234/6/1 235/2/1 236/1/1
f 237/5/1 238/6/1 239/2/1 240/1/1
f 241/5/1 242/6/1 243/2/1 244/1/1
f 245/5/1 246/6/1 247/2/1 248/1/1
f 249/5/1 250/6/1 251/2/1 252/1/1
f 253/5/1 254/6/1 255/2/1 256/1/1
f 257/5/1 258/6/1 259/2/1 260/1/1
f 261/5/1 262/6/1 263/2/1 264/1/1
f 265/5/1 266/6/1 267/2/1 268/1/1
f 269/5/1 270/6/1 271/2/1 272/1/1
f 273/5/1 274/6/1 275/2/1 276/1/1
f 277/5/1 278/6/1 279/2/1 280/1/1
f 281/5/1 282/6/1 283/2/1 284/1/1
f 285/5/1 286/6/1 287/2/1 288/1/1
f 289/5/1 290/6/1 291/2/1 292/1/1
f 293/5/1 294/6/1 295/2/1 296/1/1
f 297/5/1 298/6/1 299/2/1 300/1/1
f 301/5/1 302/6/1 303/2/1 304/1/1
f 305/5/1 306/6/1 307/2/1 308/1/1
f 309/5/1 310/6/1 311/2/1 312/1/1
f 313/5/1 314/6/1 315/2/1 316/1/1
f 317/5/1 318/6/1 319/2/1 320/1/1

