# Tiled2Unity generated file. Do not modify by hand.
# Wavefront file for 'forest-3_mesh_0007.obj'

# Vertices (Count = 288)
v -1.28 -0.32 0
v -1.6 -0.32 0
v -1.6 0 0
v -1.28 0 0
v -1.6 -0.32 0
v -1.92 -0.32 0
v -1.92 0 0
v -1.6 0 0
v -1.92 -0.32 0
v -2.24 -0.32 0
v -2.24 0 0
v -1.92 0 0
v -5.76 -0.32 0
v -6.08 -0.32 0
v -6.08 0 0
v -5.76 0 0
v -6.08 -0.32 0
v -6.4 -0.32 0
v -6.4 0 0
v -6.08 0 0
v -6.4 -0.32 0
v -6.72 -0.32 0
v -6.72 0 0
v -6.4 0 0
v -1.28 -0.64 0
v -1.6 -0.64 0
v -1.6 -0.32 0
v -1.28 -0.32 0
v -1.6 -0.64 0
v -1.92 -0.64 0
v -1.92 -0.32 0
v -1.6 -0.32 0
v -1.92 -0.64 0
v -2.24 -0.64 0
v -2.24 -0.32 0
v -1.92 -0.32 0
v -5.76 -0.64 0
v -6.08 -0.64 0
v -6.08 -0.32 0
v -5.76 -0.32 0
v -6.08 -0.64 0
v -6.4 -0.64 0
v -6.4 -0.32 0
v -6.08 -0.32 0
v -6.4 -0.64 0
v -6.72 -0.64 0
v -6.72 -0.32 0
v -6.4 -0.32 0
v -1.28 -0.96 0
v -1.6 -0.96 0
v -1.6 -0.64 0
v -1.28 -0.64 0
v -1.6 -0.96 0
v -1.92 -0.96 0
v -1.92 -0.64 0
v -1.6 -0.64 0
v -1.92 -0.96 0
v -2.24 -0.96 0
v -2.24 -0.64 0
v -1.92 -0.64 0
v -1.28 -1.28 0
v -1.6 -1.28 0
v -1.6 -0.96 0
v -1.28 -0.96 0
v -1.6 -1.28 0
v -1.92 -1.28 0
v -1.92 -0.96 0
v -1.6 -0.96 0
v -1.92 -1.28 0
v -2.24 -1.28 0
v -2.24 -0.96 0
v -1.92 -0.96 0
v -1.92 -2.24 0
v -2.24 -2.24 0
v -2.24 -1.92 0
v -1.92 -1.92 0
v -2.24 -2.24 0
v -2.56 -2.24 0
v -2.56 -1.92 0
v -2.24 -1.92 0
v -2.56 -2.24 0
v -2.88 -2.24 0
v -2.88 -1.92 0
v -2.56 -1.92 0
v -4.16 -2.24 0
v -4.48 -2.24 0
v -4.48 -1.92 0
v -4.16 -1.92 0
v -4.48 -2.24 0
v -4.8 -2.24 0
v -4.8 -1.92 0
v -4.48 -1.92 0
v -4.8 -2.24 0
v -5.12 -2.24 0
v -5.12 -1.92 0
v -4.8 -1.92 0
v -1.92 -2.56 0
v -2.24 -2.56 0
v -2.24 -2.24 0
v -1.92 -2.24 0
v -2.24 -2.56 0
v -2.56 -2.56 0
v -2.56 -2.24 0
v -2.24 -2.24 0
v -2.56 -2.56 0
v -2.88 -2.56 0
v -2.88 -2.24 0
v -2.56 -2.24 0
v -3.2 -2.56 0
v -3.52 -2.56 0
v -3.52 -2.24 0
v -3.2 -2.24 0
v -3.52 -2.56 0
v -3.84 -2.56 0
v -3.84 -2.24 0
v -3.52 -2.24 0
v -3.84 -2.56 0
v -4.16 -2.56 0
v -4.16 -2.24 0
v -3.84 -2.24 0
v -4.16 -2.56 0
v -4.48 -2.56 0
v -4.48 -2.24 0
v -4.16 -2.24 0
v -4.48 -2.56 0
v -4.8 -2.56 0
v -4.8 -2.24 0
v -4.48 -2.24 0
v -4.8 -2.56 0
v -5.12 -2.56 0
v -5.12 -2.24 0
v -4.8 -2.24 0
v -1.92 -2.88 0
v -2.24 -2.88 0
v -2.24 -2.56 0
v -1.92 -2.56 0
v -2.24 -2.88 0
v -2.56 -2.88 0
v -2.56 -2.56 0
v -2.24 -2.56 0
v -2.56 -2.88 0
v -2.88 -2.88 0
v -2.88 -2.56 0
v -2.56 -2.56 0
v -3.2 -2.88 0
v -3.52 -2.88 0
v -3.52 -2.56 0
v -3.2 -2.56 0
v -3.52 -2.88 0
v -3.84 -2.88 0
v -3.84 -2.56 0
v -3.52 -2.56 0
v -3.84 -2.88 0
v -4.16 -2.88 0
v -4.16 -2.56 0
v -3.84 -2.56 0
v -4.16 -2.88 0
v -4.48 -2.88 0
v -4.48 -2.56 0
v -4.16 -2.56 0
v -4.48 -2.88 0
v -4.8 -2.88 0
v -4.8 -2.56 0
v -4.48 -2.56 0
v -4.8 -2.88 0
v -5.12 -2.88 0
v -5.12 -2.56 0
v -4.8 -2.56 0
v -1.92 -3.2 0
v -2.24 -3.2 0
v -2.24 -2.88 0
v -1.92 -2.88 0
v -2.24 -3.2 0
v -2.56 -3.2 0
v -2.56 -2.88 0
v -2.24 -2.88 0
v -2.56 -3.2 0
v -2.88 -3.2 0
v -2.88 -2.88 0
v -2.56 -2.88 0
v -3.2 -3.2 0
v -3.52 -3.2 0
v -3.52 -2.88 0
v -3.2 -2.88 0
v -3.52 -3.2 0
v -3.84 -3.2 0
v -3.84 -2.88 0
v -3.52 -2.88 0
v -3.84 -3.2 0
v -4.16 -3.2 0
v -4.16 -2.88 0
v -3.84 -2.88 0
v -4.16 -3.2 0
v -4.48 -3.2 0
v -4.48 -2.88 0
v -4.16 -2.88 0
v -4.48 -3.2 0
v -4.8 -3.2 0
v -4.8 -2.88 0
v -4.48 -2.88 0
v -4.8 -3.2 0
v -5.12 -3.2 0
v -5.12 -2.88 0
v -4.8 -2.88 0
v -6.4 -3.2 0
v -6.72 -3.2 0
v -6.72 -2.88 0
v -6.4 -2.88 0
v -6.72 -3.2 0
v -7.04 -3.2 0
v -7.04 -2.88 0
v -6.72 -2.88 0
v -7.04 -3.2 0
v -7.36 -3.2 0
v -7.36 -2.88 0
v -7.04 -2.88 0
v -3.2 -3.52 0
v -3.52 -3.52 0
v -3.52 -3.2 0
v -3.2 -3.2 0
v -3.52 -3.52 0
v -3.84 -3.52 0
v -3.84 -3.2 0
v -3.52 -3.2 0
v -3.84 -3.52 0
v -4.16 -3.52 0
v -4.16 -3.2 0
v -3.84 -3.2 0
v -6.4 -3.52 0
v -6.72 -3.52 0
v -6.72 -3.2 0
v -6.4 -3.2 0
v -6.72 -3.52 0
v -7.04 -3.52 0
v -7.04 -3.2 0
v -6.72 -3.2 0
v -7.04 -3.52 0
v -7.36 -3.52 0
v -7.36 -3.2 0
v -7.04 -3.2 0
v -0.96 -3.84 0
v -1.28 -3.84 0
v -1.28 -3.52 0
v -0.96 -3.52 0
v -1.28 -3.84 0
v -1.6 -3.84 0
v -1.6 -3.52 0
v -1.28 -3.52 0
v -1.6 -3.84 0
v -1.92 -3.84 0
v -1.92 -3.52 0
v -1.6 -3.52 0
v -6.4 -3.84 0
v -6.72 -3.84 0
v -6.72 -3.52 0
v -6.4 -3.52 0
v -6.72 -3.84 0
v -7.04 -3.84 0
v -7.04 -3.52 0
v -6.72 -3.52 0
v -7.04 -3.84 0
v -7.36 -3.84 0
v -7.36 -3.52 0
v -7.04 -3.52 0
v -0.96 -4.16 0
v -1.28 -4.16 0
v -1.28 -3.84 0
v -0.96 -3.84 0
v -1.28 -4.16 0
v -1.6 -4.16 0
v -1.6 -3.84 0
v -1.28 -3.84 0
v -1.6 -4.16 0
v -1.92 -4.16 0
v -1.92 -3.84 0
v -1.6 -3.84 0
v -0.96 -4.48 0
v -1.28 -4.48 0
v -1.28 -4.16 0
v -0.96 -4.16 0
v -1.28 -4.48 0
v -1.6 -4.48 0
v -1.6 -4.16 0
v -1.28 -4.16 0
v -1.6 -4.48 0
v -1.92 -4.48 0
v -1.92 -4.16 0
v -1.6 -4.16 0

# Texture cooridinates (Count = 32)
vt 0.5 0.4285714
vt 0.6666667 0.4285714
vt 0.6666667 0.5714285
vt 0.5 0.5714285
vt 0.8333333 0.4285714
vt 0.8333333 0.5714285
vt 1 0.4285714
vt 1 0.5714285
vt 0.5 0.7142857
vt 0.6666667 0.7142857
vt 0.6666667 0.8571429
vt 0.5 0.8571429
vt 0.8333333 0.7142857
vt 0.8333333 0.8571429
vt 1 0.7142857
vt 1 0.8571429
vt 0.5 0.2857143
vt 0.6666667 0.2857143
vt 0.8333333 0.2857143
vt 1 0.2857143
vt 0.5 0.1428571
vt 0.6666667 0.1428571
vt 0.8333333 0.1428571
vt 1 0.1428571
vt 0.5 0
vt 0.6666667 0
vt 0.8333333 0
vt 1 0
vt 0.6666667 1
vt 0.5 1
vt 0.8333333 1
vt 1 1

# Normal
vn 0 0 -1

# Mesh description
g forest-3_mesh_0007

# Faces
f 1/1/1 2/2/1 3/3/1 4/4/1
f 5/2/1 6/5/1 7/6/1 8/3/1
f 9/5/1 10/7/1 11/8/1 12/6/1
f 13/9/1 14/10/1 15/11/1 16/12/1
f 17/10/1 18/13/1 19/14/1 20/11/1
f 21/13/1 22/15/1 23/16/1 24/14/1
f 25/17/1 26/18/1 27/2/1 28/1/1
f 29/18/1 30/19/1 31/5/1 32/2/1
f 33/19/1 34/20/1 35/7/1 36/5/1
f 37/4/1 38/3/1 39/10/1 40/9/1
f 41/3/1 42/6/1 43/13/1 44/10/1
f 45/6/1 46/8/1 47/15/1 48/13/1
f 49/21/1 50/22/1 51/18/1 52/17/1
f 53/22/1 54/23/1 55/19/1 56/18/1
f 57/23/1 58/24/1 59/20/1 60/19/1
f 61/25/1 62/26/1 63/22/1 64/21/1
f 65/26/1 66/27/1 67/23/1 68/22/1
f 69/27/1 70/28/1 71/24/1 72/23/1
f 73/1/1 74/2/1 75/3/1 76/4/1
f 77/2/1 78/5/1 79/6/1 80/3/1
f 81/5/1 82/7/1 83/8/1 84/6/1
f 85/1/1 86/2/1 87/3/1 88/4/1
f 89/2/1 90/5/1 91/6/1 92/3/1
f 93/5/1 94/7/1 95/8/1 96/6/1
f 97/17/1 98/18/1 99/2/1 100/1/1
f 101/18/1 102/19/1 103/5/1 104/2/1
f 105/19/1 106/20/1 107/7/1 108/5/1
f 109/1/1 110/2/1 111/3/1 112/4/1
f 113/2/1 114/5/1 115/6/1 116/3/1
f 117/5/1 118/7/1 119/8/1 120/6/1
f 121/17/1 122/18/1 123/2/1 124/1/1
f 125/18/1 126/19/1 127/5/1 128/2/1
f 129/19/1 130/20/1 131/7/1 132/5/1
f 133/21/1 134/22/1 135/18/1 136/17/1
f 137/22/1 138/23/1 139/19/1 140/18/1
f 141/23/1 142/24/1 143/20/1 144/19/1
f 145/17/1 146/18/1 147/2/1 148/1/1
f 149/18/1 150/19/1 151/5/1 152/2/1
f 153/19/1 154/20/1 155/7/1 156/5/1
f 157/21/1 158/22/1 159/18/1 160/17/1
f 161/22/1 162/23/1 163/19/1 164/18/1
f 165/23/1 166/24/1 167/20/1 168/19/1
f 169/25/1 170/26/1 171/22/1 172/21/1
f 173/26/1 174/27/1 175/23/1 176/22/1
f 177/27/1 178/28/1 179/24/1 180/23/1
f 181/21/1 182/22/1 183/18/1 184/17/1
f 185/22/1 186/23/1 187/19/1 188/18/1
f 189/23/1 190/24/1 191/20/1 192/19/1
f 193/25/1 194/26/1 195/22/1 196/21/1
f 197/26/1 198/27/1 199/23/1 200/22/1
f 201/27/1 202/28/1 203/24/1 204/23/1
f 205/12/1 206/11/1 207/29/1 208/30/1
f 209/11/1 210/14/1 211/31/1 212/29/1
f 213/14/1 214/16/1 215/32/1 216/31/1
f 217/25/1 218/26/1 219/22/1 220/21/1
f 221/26/1 222/27/1 223/23/1 224/22/1
f 225/27/1 226/28/1 227/24/1 228/23/1
f 229/9/1 230/10/1 231/11/1 232/12/1
f 233/10/1 234/13/1 235/14/1 236/11/1
f 237/13/1 238/15/1 239/16/1 240/14/1
f 241/12/1 242/11/1 243/29/1 244/30/1
f 245/11/1 246/14/1 247/31/1 248/29/1
f 249/14/1 250/16/1 251/32/1 252/31/1
f 253/4/1 254/3/1 255/10/1 256/9/1
f 257/3/1 258/6/1 259/13/1 260/10/1
f 261/6/1 262/8/1 263/15/1 264/13/1
f 265/9/1 266/10/1 267/11/1 268/12/1
f 269/10/1 270/13/1 271/14/1 272/11/1
f 273/13/1 274/15/1 275/16/1 276/14/1
f 277/4/1 278/3/1 279/10/1 280/9/1
f 281/3/1 282/6/1 283/13/1 284/10/1
f 285/6/1 286/8/1 287/15/1 288/13/1

