# Tiled2Unity generated file. Do not modify by hand.
# Wavefront file for 'treca_mesh_0006.obj'

# Vertices (Count = 336)
v -2.88 -0.32 0
v -3.2 -0.32 0
v -3.2 0 0
v -2.88 0 0
v -3.2 -0.32 0
v -3.52 -0.32 0
v -3.52 0 0
v -3.2 0 0
v -3.52 -0.32 0
v -3.84 -0.32 0
v -3.84 0 0
v -3.52 0 0
v -3.84 -0.32 0
v -4.16 -0.32 0
v -4.16 0 0
v -3.84 0 0
v -4.16 -0.32 0
v -4.48 -0.32 0
v -4.48 0 0
v -4.16 0 0
v -4.48 -0.32 0
v -4.8 -0.32 0
v -4.8 0 0
v -4.48 0 0
v -2.24 -0.64 0
v -2.56 -0.64 0
v -2.56 -0.32 0
v -2.24 -0.32 0
v -2.56 -0.64 0
v -2.88 -0.64 0
v -2.88 -0.32 0
v -2.56 -0.32 0
v -2.88 -0.64 0
v -3.2 -0.64 0
v -3.2 -0.32 0
v -2.88 -0.32 0
v -3.2 -0.64 0
v -3.52 -0.64 0
v -3.52 -0.32 0
v -3.2 -0.32 0
v -3.52 -0.64 0
v -3.84 -0.64 0
v -3.84 -0.32 0
v -3.52 -0.32 0
v -3.84 -0.64 0
v -4.16 -0.64 0
v -4.16 -0.32 0
v -3.84 -0.32 0
v -4.16 -0.64 0
v -4.48 -0.64 0
v -4.48 -0.32 0
v -4.16 -0.32 0
v -4.48 -0.64 0
v -4.8 -0.64 0
v -4.8 -0.32 0
v -4.48 -0.32 0
v -4.8 -0.64 0
v -5.12 -0.64 0
v -5.12 -0.32 0
v -4.8 -0.32 0
v -1.92 -0.96 0
v -2.24 -0.96 0
v -2.24 -0.64 0
v -1.92 -0.64 0
v -2.24 -0.96 0
v -2.56 -0.96 0
v -2.56 -0.64 0
v -2.24 -0.64 0
v -2.56 -0.96 0
v -2.88 -0.96 0
v -2.88 -0.64 0
v -2.56 -0.64 0
v -2.88 -0.96 0
v -3.2 -0.96 0
v -3.2 -0.64 0
v -2.88 -0.64 0
v -3.2 -0.96 0
v -3.52 -0.96 0
v -3.52 -0.64 0
v -3.2 -0.64 0
v -3.52 -0.96 0
v -3.84 -0.96 0
v -3.84 -0.64 0
v -3.52 -0.64 0
v -1.92 -1.28 0
v -2.24 -1.28 0
v -2.24 -0.96 0
v -1.92 -0.96 0
v -2.24 -1.28 0
v -2.56 -1.28 0
v -2.56 -0.96 0
v -2.24 -0.96 0
v -2.56 -1.28 0
v -2.88 -1.28 0
v -2.88 -0.96 0
v -2.56 -0.96 0
v -2.88 -1.28 0
v -3.2 -1.28 0
v -3.2 -0.96 0
v -2.88 -0.96 0
v -3.2 -1.28 0
v -3.52 -1.28 0
v -3.52 -0.96 0
v -3.2 -0.96 0
v -2.24 -1.6 0
v -2.56 -1.6 0
v -2.56 -1.28 0
v -2.24 -1.28 0
v -2.56 -1.6 0
v -2.88 -1.6 0
v -2.88 -1.28 0
v -2.56 -1.28 0
v -3.2 -1.6 0
v -3.52 -1.6 0
v -3.52 -1.28 0
v -3.2 -1.28 0
v -1.92 -1.92 0
v -2.24 -1.92 0
v -2.24 -1.6 0
v -1.92 -1.6 0
v -2.24 -1.92 0
v -2.56 -1.92 0
v -2.56 -1.6 0
v -2.24 -1.6 0
v -2.88 -3.84 0
v -3.2 -3.84 0
v -3.2 -3.52 0
v -2.88 -3.52 0
v -2.88 -4.16 0
v -3.2 -4.16 0
v -3.2 -3.84 0
v -2.88 -3.84 0
v -3.2 -4.16 0
v -3.52 -4.16 0
v -3.52 -3.84 0
v -3.2 -3.84 0
v -0.64 -4.48 0
v -0.96 -4.48 0
v -0.96 -4.16 0
v -0.64 -4.16 0
v -0.96 -4.48 0
v -1.28 -4.48 0
v -1.28 -4.16 0
v -0.96 -4.16 0
v -1.28 -4.48 0
v -1.6 -4.48 0
v -1.6 -4.16 0
v -1.28 -4.16 0
v -2.88 -4.48 0
v -3.2 -4.48 0
v -3.2 -4.16 0
v -2.88 -4.16 0
v -3.2 -4.48 0
v -3.52 -4.48 0
v -3.52 -4.16 0
v -3.2 -4.16 0
v -3.52 -4.48 0
v -3.84 -4.48 0
v -3.84 -4.16 0
v -3.52 -4.16 0
v -4.48 -4.48 0
v -4.8 -4.48 0
v -4.8 -4.16 0
v -4.48 -4.16 0
v -4.8 -4.48 0
v -5.12 -4.48 0
v -5.12 -4.16 0
v -4.8 -4.16 0
v -5.12 -4.48 0
v -5.44 -4.48 0
v -5.44 -4.16 0
v -5.12 -4.16 0
v -5.44 -4.48 0
v -5.76 -4.48 0
v -5.76 -4.16 0
v -5.44 -4.16 0
v -5.76 -4.48 0
v -6.08 -4.48 0
v -6.08 -4.16 0
v -5.76 -4.16 0
v -0.64 -4.8 0
v -0.96 -4.8 0
v -0.96 -4.48 0
v -0.64 -4.48 0
v -1.28 -4.8 0
v -1.6 -4.8 0
v -1.6 -4.48 0
v -1.28 -4.48 0
v -2.56 -4.8 0
v -2.88 -4.8 0
v -2.88 -4.48 0
v -2.56 -4.48 0
v -2.88 -4.8 0
v -3.2 -4.8 0
v -3.2 -4.48 0
v -2.88 -4.48 0
v -3.2 -4.8 0
v -3.52 -4.8 0
v -3.52 -4.48 0
v -3.2 -4.48 0
v -3.52 -4.8 0
v -3.84 -4.8 0
v -3.84 -4.48 0
v -3.52 -4.48 0
v -3.84 -4.8 0
v -4.16 -4.8 0
v -4.16 -4.48 0
v -3.84 -4.48 0
v -4.16 -4.8 0
v -4.48 -4.8 0
v -4.48 -4.48 0
v -4.16 -4.48 0
v -4.48 -4.8 0
v -4.8 -4.8 0
v -4.8 -4.48 0
v -4.48 -4.48 0
v -4.8 -4.8 0
v -5.12 -4.8 0
v -5.12 -4.48 0
v -4.8 -4.48 0
v -5.12 -4.8 0
v -5.44 -4.8 0
v -5.44 -4.48 0
v -5.12 -4.48 0
v -5.44 -4.8 0
v -5.76 -4.8 0
v -5.76 -4.48 0
v -5.44 -4.48 0
v -5.76 -4.8 0
v -6.08 -4.8 0
v -6.08 -4.48 0
v -5.76 -4.48 0
v -6.08 -4.8 0
v -6.4 -4.8 0
v -6.4 -4.48 0
v -6.08 -4.48 0
v -0.32 -5.12 0
v -0.64 -5.12 0
v -0.64 -4.8 0
v -0.32 -4.8 0
v -0.64 -5.12 0
v -0.96 -5.12 0
v -0.96 -4.8 0
v -0.64 -4.8 0
v -1.28 -5.12 0
v -1.6 -5.12 0
v -1.6 -4.8 0
v -1.28 -4.8 0
v -1.6 -5.12 0
v -1.92 -5.12 0
v -1.92 -4.8 0
v -1.6 -4.8 0
v -1.92 -5.12 0
v -2.24 -5.12 0
v -2.24 -4.8 0
v -1.92 -4.8 0
v -2.24 -5.12 0
v -2.56 -5.12 0
v -2.56 -4.8 0
v -2.24 -4.8 0
v -2.56 -5.12 0
v -2.88 -5.12 0
v -2.88 -4.8 0
v -2.56 -4.8 0
v -2.88 -5.12 0
v -3.2 -5.12 0
v -3.2 -4.8 0
v -2.88 -4.8 0
v -3.2 -5.12 0
v -3.52 -5.12 0
v -3.52 -4.8 0
v -3.2 -4.8 0
v -3.52 -5.12 0
v -3.84 -5.12 0
v -3.84 -4.8 0
v -3.52 -4.8 0
v -3.84 -5.12 0
v -4.16 -5.12 0
v -4.16 -4.8 0
v -3.84 -4.8 0
v -4.16 -5.12 0
v -4.48 -5.12 0
v -4.48 -4.8 0
v -4.16 -4.8 0
v -4.48 -5.12 0
v -4.8 -5.12 0
v -4.8 -4.8 0
v -4.48 -4.8 0
v -6.08 -5.12 0
v -6.4 -5.12 0
v -6.4 -4.8 0
v -6.08 -4.8 0
v -3.52 -5.44 0
v -3.84 -5.44 0
v -3.84 -5.12 0
v -3.52 -5.12 0
v -3.84 -5.44 0
v -4.16 -5.44 0
v -4.16 -5.12 0
v -3.84 -5.12 0
v -4.16 -5.44 0
v -4.48 -5.44 0
v -4.48 -5.12 0
v -4.16 -5.12 0
v -5.44 -5.44 0
v -5.76 -5.44 0
v -5.76 -5.12 0
v -5.44 -5.12 0
v -5.76 -5.44 0
v -6.08 -5.44 0
v -6.08 -5.12 0
v -5.76 -5.12 0
v -6.08 -5.44 0
v -6.4 -5.44 0
v -6.4 -5.12 0
v -6.08 -5.12 0
v -4.16 -5.76 0
v -4.48 -5.76 0
v -4.48 -5.44 0
v -4.16 -5.44 0
v -4.48 -5.76 0
v -4.8 -5.76 0
v -4.8 -5.44 0
v -4.48 -5.44 0
v -4.8 -5.76 0
v -5.12 -5.76 0
v -5.12 -5.44 0
v -4.8 -5.44 0
v -5.12 -5.76 0
v -5.44 -5.76 0
v -5.44 -5.44 0
v -5.12 -5.44 0
v -5.44 -5.76 0
v -5.76 -5.76 0
v -5.76 -5.44 0
v -5.44 -5.44 0

# Texture cooridinates (Count = 8)
vt 0.6666667 0
vt 1 0
vt 1 0.1666667
vt 0.6666667 0.1666667
vt 0.3333333 0
vt 0.3333333 0.1666667
vt 0 0
vt 0 0.1666667

# Normal
vn 0 0 -1

# Mesh description
g treca_mesh_0006

# Faces
f 1/1/1 2/2/1 3/3/1 4/4/1
f 5/5/1 6/1/1 7/4/1 8/6/1
f 9/5/1 10/1/1 11/4/1 12/6/1
f 13/5/1 14/1/1 15/4/1 16/6/1
f 17/1/1 18/2/1 19/3/1 20/4/1
f 21/1/1 22/2/1 23/3/1 24/4/1
f 25/7/1 26/5/1 27/6/1 28/8/1
f 29/5/1 30/1/1 31/4/1 32/6/1
f 33/1/1 34/2/1 35/3/1 36/4/1
f 37/7/1 38/5/1 39/6/1 40/8/1
f 41/1/1 42/2/1 43/3/1 44/4/1
f 45/7/1 46/5/1 47/6/1 48/8/1
f 49/1/1 50/2/1 51/3/1 52/4/1
f 53/5/1 54/1/1 55/4/1 56/6/1
f 57/1/1 58/2/1 59/3/1 60/4/1
f 61/7/1 62/5/1 63/6/1 64/8/1
f 65/7/1 66/5/1 67/6/1 68/8/1
f 69/1/1 70/2/1 71/3/1 72/4/1
f 73/7/1 74/5/1 75/6/1 76/8/1
f 77/5/1 78/1/1 79/4/1 80/6/1
f 81/1/1 82/2/1 83/3/1 84/4/1
f 85/7/1 86/5/1 87/6/1 88/8/1
f 89/7/1 90/5/1 91/6/1 92/8/1
f 93/1/1 94/2/1 95/3/1 96/4/1
f 97/7/1 98/5/1 99/6/1 100/8/1
f 101/7/1 102/5/1 103/6/1 104/8/1
f 105/7/1 106/5/1 107/6/1 108/8/1
f 109/7/1 110/5/1 111/6/1 112/8/1
f 113/1/1 114/2/1 115/3/1 116/4/1
f 117/5/1 118/1/1 119/4/1 120/6/1
f 121/5/1 122/1/1 123/4/1 124/6/1
f 125/7/1 126/5/1 127/6/1 128/8/1
f 129/7/1 130/5/1 131/6/1 132/8/1
f 133/1/1 134/2/1 135/3/1 136/4/1
f 137/7/1 138/5/1 139/6/1 140/8/1
f 141/5/1 142/1/1 143/4/1 144/6/1
f 145/7/1 146/5/1 147/6/1 148/8/1
f 149/7/1 150/5/1 151/6/1 152/8/1
f 153/1/1 154/2/1 155/3/1 156/4/1
f 157/1/1 158/2/1 159/3/1 160/4/1
f 161/5/1 162/1/1 163/4/1 164/6/1
f 165/1/1 166/2/1 167/3/1 168/4/1
f 169/1/1 170/2/1 171/3/1 172/4/1
f 173/7/1 174/5/1 175/6/1 176/8/1
f 177/5/1 178/1/1 179/4/1 180/6/1
f 181/7/1 182/5/1 183/6/1 184/8/1
f 185/5/1 186/1/1 187/4/1 188/6/1
f 189/5/1 190/1/1 191/4/1 192/6/1
f 193/5/1 194/1/1 195/4/1 196/6/1
f 197/7/1 198/5/1 199/6/1 200/8/1
f 201/1/1 202/2/1 203/3/1 204/4/1
f 205/1/1 206/2/1 207/3/1 208/4/1
f 209/1/1 210/2/1 211/3/1 212/4/1
f 213/5/1 214/1/1 215/4/1 216/6/1
f 217/7/1 218/5/1 219/6/1 220/8/1
f 221/7/1 222/5/1 223/6/1 224/8/1
f 225/1/1 226/2/1 227/3/1 228/4/1
f 229/1/1 230/2/1 231/3/1 232/4/1
f 233/5/1 234/1/1 235/4/1 236/6/1
f 237/7/1 238/5/1 239/6/1 240/8/1
f 241/5/1 242/1/1 243/4/1 244/6/1
f 245/1/1 246/2/1 247/3/1 248/4/1
f 249/5/1 250/1/1 251/4/1 252/6/1
f 253/1/1 254/2/1 255/3/1 256/4/1
f 257/1/1 258/2/1 259/3/1 260/4/1
f 261/7/1 262/5/1 263/6/1 264/8/1
f 265/7/1 266/5/1 267/6/1 268/8/1
f 269/7/1 270/5/1 271/6/1 272/8/1
f 273/1/1 274/2/1 275/3/1 276/4/1
f 277/7/1 278/5/1 279/6/1 280/8/1
f 281/5/1 282/1/1 283/4/1 284/6/1
f 285/1/1 286/2/1 287/3/1 288/4/1
f 289/1/1 290/2/1 291/3/1 292/4/1
f 293/5/1 294/1/1 295/4/1 296/6/1
f 297/5/1 298/1/1 299/4/1 300/6/1
f 301/1/1 302/2/1 303/3/1 304/4/1
f 305/1/1 306/2/1 307/3/1 308/4/1
f 309/1/1 310/2/1 311/3/1 312/4/1
f 313/7/1 314/5/1 315/6/1 316/8/1
f 317/7/1 318/5/1 319/6/1 320/8/1
f 321/7/1 322/5/1 323/6/1 324/8/1
f 325/7/1 326/5/1 327/6/1 328/8/1
f 329/5/1 330/1/1 331/4/1 332/6/1
f 333/7/1 334/5/1 335/6/1 336/8/1

