# Tiled2Unity generated file. Do not modify by hand.
# Wavefront file for 'cetvrta_mesh_0003.obj'

# Vertices (Count = 48)
v -0.96 -1.28 0
v -1.28 -1.28 0
v -1.28 -0.96 0
v -0.96 -0.96 0
v -0.96 -1.6 0
v -1.28 -1.6 0
v -1.28 -1.28 0
v -0.96 -1.28 0
v -3.52 -1.6 0
v -3.84 -1.6 0
v -3.84 -1.28 0
v -3.52 -1.28 0
v -3.52 -1.92 0
v -3.84 -1.92 0
v -3.84 -1.6 0
v -3.52 -1.6 0
v -5.76 -1.92 0
v -6.08 -1.92 0
v -6.08 -1.6 0
v -5.76 -1.6 0
v -6.08 -1.92 0
v -6.4 -1.92 0
v -6.4 -1.6 0
v -6.08 -1.6 0
v -1.28 -4.48 0
v -1.6 -4.48 0
v -1.6 -4.16 0
v -1.28 -4.16 0
v -1.6 -4.48 0
v -1.92 -4.48 0
v -1.92 -4.16 0
v -1.6 -4.16 0
v -3.2 -4.48 0
v -3.52 -4.48 0
v -3.52 -4.16 0
v -3.2 -4.16 0
v -3.52 -4.48 0
v -3.84 -4.48 0
v -3.84 -4.16 0
v -3.52 -4.16 0
v -6.08 -4.8 0
v -6.4 -4.8 0
v -6.4 -4.48 0
v -6.08 -4.48 0
v -6.08 -5.12 0
v -6.4 -5.12 0
v -6.4 -4.8 0
v -6.08 -4.8 0

# Texture cooridinates (Count = 12)
vt 0.6153846 0.07692307
vt 0.6923077 0.07692307
vt 0.6923077 0.1538461
vt 0.6153846 0.1538461
vt 0.6153846 0
vt 0.6923077 0
vt 0.6923077 0.3076923
vt 0.7692308 0.3076923
vt 0.7692308 0.3846154
vt 0.6923077 0.3846154
vt 0.8461539 0.3076923
vt 0.8461539 0.3846154

# Normal
vn 0 0 -1

# Mesh description
g cetvrta_mesh_0003

# Faces
f 1/1/1 2/2/1 3/3/1 4/4/1
f 5/5/1 6/6/1 7/2/1 8/1/1
f 9/1/1 10/2/1 11/3/1 12/4/1
f 13/5/1 14/6/1 15/2/1 16/1/1
f 17/7/1 18/8/1 19/9/1 20/10/1
f 21/8/1 22/11/1 23/12/1 24/9/1
f 25/7/1 26/8/1 27/9/1 28/10/1
f 29/8/1 30/11/1 31/12/1 32/9/1
f 33/7/1 34/8/1 35/9/1 36/10/1
f 37/8/1 38/11/1 39/12/1 40/9/1
f 41/1/1 42/2/1 43/3/1 44/4/1
f 45/5/1 46/6/1 47/2/1 48/1/1

