# Tiled2Unity generated file. Do not modify by hand.
# Wavefront file for 'forest-4_mesh_0005.obj'

# Vertices (Count = 16)
v -5.12 -2.56 0
v -5.44 -2.56 0
v -5.44 -2.24 0
v -5.12 -2.24 0
v -5.44 -2.56 0
v -5.76 -2.56 0
v -5.76 -2.24 0
v -5.44 -2.24 0
v -5.12 -2.88 0
v -5.44 -2.88 0
v -5.44 -2.56 0
v -5.12 -2.56 0
v -5.44 -2.88 0
v -5.76 -2.88 0
v -5.76 -2.56 0
v -5.44 -2.56 0

# Texture cooridinates (Count = 9)
vt 0.2307692 0.7692308
vt 0.3076923 0.7692308
vt 0.3076923 0.8461539
vt 0.2307692 0.8461539
vt 0.3846154 0.7692308
vt 0.3846154 0.8461539
vt 0.2307692 0.6923077
vt 0.3076923 0.6923077
vt 0.3846154 0.6923077

# Normal
vn 0 0 -1

# Mesh description
g forest-4_mesh_0005

# Faces
f 1/1/1 2/2/1 3/3/1 4/4/1
f 5/2/1 6/5/1 7/6/1 8/3/1
f 9/7/1 10/8/1 11/2/1 12/1/1
f 13/8/1 14/9/1 15/5/1 16/2/1

