# Tiled2Unity generated file. Do not modify by hand.
# Wavefront file for 'forest-4_mesh_0006.obj'

# Vertices (Count = 504)
v -0.64 -0.32 0
v -0.96 -0.32 0
v -0.96 0 0
v -0.64 0 0
v -0.96 -0.32 0
v -1.28 -0.32 0
v -1.28 0 0
v -0.96 0 0
v -1.28 -0.32 0
v -1.6 -0.32 0
v -1.6 0 0
v -1.28 0 0
v -0.64 -0.64 0
v -0.96 -0.64 0
v -0.96 -0.32 0
v -0.64 -0.32 0
v -0.96 -0.64 0
v -1.28 -0.64 0
v -1.28 -0.32 0
v -0.96 -0.32 0
v -1.28 -0.64 0
v -1.6 -0.64 0
v -1.6 -0.32 0
v -1.28 -0.32 0
v -1.6 -0.64 0
v -1.92 -0.64 0
v -1.92 -0.32 0
v -1.6 -0.32 0
v -0.64 -0.96 0
v -0.96 -0.96 0
v -0.96 -0.64 0
v -0.64 -0.64 0
v -0.96 -0.96 0
v -1.28 -0.96 0
v -1.28 -0.64 0
v -0.96 -0.64 0
v -1.28 -0.96 0
v -1.6 -0.96 0
v -1.6 -0.64 0
v -1.28 -0.64 0
v -1.6 -0.96 0
v -1.92 -0.96 0
v -1.92 -0.64 0
v -1.6 -0.64 0
v -0.64 -1.28 0
v -0.96 -1.28 0
v -0.96 -0.96 0
v -0.64 -0.96 0
v -0.96 -1.28 0
v -1.28 -1.28 0
v -1.28 -0.96 0
v -0.96 -0.96 0
v -1.28 -1.28 0
v -1.6 -1.28 0
v -1.6 -0.96 0
v -1.28 -0.96 0
v -1.6 -1.28 0
v -1.92 -1.28 0
v -1.92 -0.96 0
v -1.6 -0.96 0
v -0.64 -1.6 0
v -0.96 -1.6 0
v -0.96 -1.28 0
v -0.64 -1.28 0
v -0.96 -1.6 0
v -1.28 -1.6 0
v -1.28 -1.28 0
v -0.96 -1.28 0
v -1.28 -1.6 0
v -1.6 -1.6 0
v -1.6 -1.28 0
v -1.28 -1.28 0
v -1.6 -1.6 0
v -1.92 -1.6 0
v -1.92 -1.28 0
v -1.6 -1.28 0
v -0.64 -1.92 0
v -0.96 -1.92 0
v -0.96 -1.6 0
v -0.64 -1.6 0
v -0.96 -1.92 0
v -1.28 -1.92 0
v -1.28 -1.6 0
v -0.96 -1.6 0
v -1.28 -1.92 0
v -1.6 -1.92 0
v -1.6 -1.6 0
v -1.28 -1.6 0
v -1.6 -1.92 0
v -1.92 -1.92 0
v -1.92 -1.6 0
v -1.6 -1.6 0
v -0.32 -2.24 0
v -0.64 -2.24 0
v -0.64 -1.92 0
v -0.32 -1.92 0
v -0.64 -2.24 0
v -0.96 -2.24 0
v -0.96 -1.92 0
v -0.64 -1.92 0
v -0.96 -2.24 0
v -1.28 -2.24 0
v -1.28 -1.92 0
v -0.96 -1.92 0
v -1.28 -2.24 0
v -1.6 -2.24 0
v -1.6 -1.92 0
v -1.28 -1.92 0
v -1.6 -2.24 0
v -1.92 -2.24 0
v -1.92 -1.92 0
v -1.6 -1.92 0
v -0.32 -2.56 0
v -0.64 -2.56 0
v -0.64 -2.24 0
v -0.32 -2.24 0
v -0.64 -2.56 0
v -0.96 -2.56 0
v -0.96 -2.24 0
v -0.64 -2.24 0
v -0.96 -2.56 0
v -1.28 -2.56 0
v -1.28 -2.24 0
v -0.96 -2.24 0
v -1.28 -2.56 0
v -1.6 -2.56 0
v -1.6 -2.24 0
v -1.28 -2.24 0
v -1.6 -2.56 0
v -1.92 -2.56 0
v -1.92 -2.24 0
v -1.6 -2.24 0
v -1.92 -2.56 0
v -2.24 -2.56 0
v -2.24 -2.24 0
v -1.92 -2.24 0
v -0.32 -2.88 0
v -0.64 -2.88 0
v -0.64 -2.56 0
v -0.32 -2.56 0
v -0.64 -2.88 0
v -0.96 -2.88 0
v -0.96 -2.56 0
v -0.64 -2.56 0
v -0.96 -2.88 0
v -1.28 -2.88 0
v -1.28 -2.56 0
v -0.96 -2.56 0
v -1.28 -2.88 0
v -1.6 -2.88 0
v -1.6 -2.56 0
v -1.28 -2.56 0
v -1.6 -2.88 0
v -1.92 -2.88 0
v -1.92 -2.56 0
v -1.6 -2.56 0
v -1.92 -2.88 0
v -2.24 -2.88 0
v -2.24 -2.56 0
v -1.92 -2.56 0
v -2.24 -2.88 0
v -2.56 -2.88 0
v -2.56 -2.56 0
v -2.24 -2.56 0
v -7.04 -2.88 0
v -7.36 -2.88 0
v -7.36 -2.56 0
v -7.04 -2.56 0
v -0.32 -3.2 0
v -0.64 -3.2 0
v -0.64 -2.88 0
v -0.32 -2.88 0
v -0.64 -3.2 0
v -0.96 -3.2 0
v -0.96 -2.88 0
v -0.64 -2.88 0
v -0.96 -3.2 0
v -1.28 -3.2 0
v -1.28 -2.88 0
v -0.96 -2.88 0
v -1.28 -3.2 0
v -1.6 -3.2 0
v -1.6 -2.88 0
v -1.28 -2.88 0
v -1.6 -3.2 0
v -1.92 -3.2 0
v -1.92 -2.88 0
v -1.6 -2.88 0
v -1.92 -3.2 0
v -2.24 -3.2 0
v -2.24 -2.88 0
v -1.92 -2.88 0
v -2.24 -3.2 0
v -2.56 -3.2 0
v -2.56 -2.88 0
v -2.24 -2.88 0
v -2.56 -3.2 0
v -2.88 -3.2 0
v -2.88 -2.88 0
v -2.56 -2.88 0
v -2.88 -3.2 0
v -3.2 -3.2 0
v -3.2 -2.88 0
v -2.88 -2.88 0
v -3.2 -3.2 0
v -3.52 -3.2 0
v -3.52 -2.88 0
v -3.2 -2.88 0
v -3.52 -3.2 0
v -3.84 -3.2 0
v -3.84 -2.88 0
v -3.52 -2.88 0
v -3.84 -3.2 0
v -4.16 -3.2 0
v -4.16 -2.88 0
v -3.84 -2.88 0
v -4.16 -3.2 0
v -4.48 -3.2 0
v -4.48 -2.88 0
v -4.16 -2.88 0
v -4.48 -3.2 0
v -4.8 -3.2 0
v -4.8 -2.88 0
v -4.48 -2.88 0
v -4.8 -3.2 0
v -5.12 -3.2 0
v -5.12 -2.88 0
v -4.8 -2.88 0
v -5.12 -3.2 0
v -5.44 -3.2 0
v -5.44 -2.88 0
v -5.12 -2.88 0
v -5.44 -3.2 0
v -5.76 -3.2 0
v -5.76 -2.88 0
v -5.44 -2.88 0
v -5.76 -3.2 0
v -6.08 -3.2 0
v -6.08 -2.88 0
v -5.76 -2.88 0
v -6.72 -3.2 0
v -7.04 -3.2 0
v -7.04 -2.88 0
v -6.72 -2.88 0
v -7.04 -3.2 0
v -7.36 -3.2 0
v -7.36 -2.88 0
v -7.04 -2.88 0
v -7.36 -3.2 0
v -7.68 -3.2 0
v -7.68 -2.88 0
v -7.36 -2.88 0
v -0.32 -3.52 0
v -0.64 -3.52 0
v -0.64 -3.2 0
v -0.32 -3.2 0
v -0.64 -3.52 0
v -0.96 -3.52 0
v -0.96 -3.2 0
v -0.64 -3.2 0
v -0.96 -3.52 0
v -1.28 -3.52 0
v -1.28 -3.2 0
v -0.96 -3.2 0
v -1.28 -3.52 0
v -1.6 -3.52 0
v -1.6 -3.2 0
v -1.28 -3.2 0
v -1.6 -3.52 0
v -1.92 -3.52 0
v -1.92 -3.2 0
v -1.6 -3.2 0
v -1.92 -3.52 0
v -2.24 -3.52 0
v -2.24 -3.2 0
v -1.92 -3.2 0
v -2.24 -3.52 0
v -2.56 -3.52 0
v -2.56 -3.2 0
v -2.24 -3.2 0
v -2.56 -3.52 0
v -2.88 -3.52 0
v -2.88 -3.2 0
v -2.56 -3.2 0
v -2.88 -3.52 0
v -3.2 -3.52 0
v -3.2 -3.2 0
v -2.88 -3.2 0
v -3.2 -3.52 0
v -3.52 -3.52 0
v -3.52 -3.2 0
v -3.2 -3.2 0
v -3.52 -3.52 0
v -3.84 -3.52 0
v -3.84 -3.2 0
v -3.52 -3.2 0
v -3.84 -3.52 0
v -4.16 -3.52 0
v -4.16 -3.2 0
v -3.84 -3.2 0
v -4.16 -3.52 0
v -4.48 -3.52 0
v -4.48 -3.2 0
v -4.16 -3.2 0
v -4.48 -3.52 0
v -4.8 -3.52 0
v -4.8 -3.2 0
v -4.48 -3.2 0
v -4.8 -3.52 0
v -5.12 -3.52 0
v -5.12 -3.2 0
v -4.8 -3.2 0
v -5.12 -3.52 0
v -5.44 -3.52 0
v -5.44 -3.2 0
v -5.12 -3.2 0
v -5.44 -3.52 0
v -5.76 -3.52 0
v -5.76 -3.2 0
v -5.44 -3.2 0
v -5.76 -3.52 0
v -6.08 -3.52 0
v -6.08 -3.2 0
v -5.76 -3.2 0
v -6.08 -3.52 0
v -6.4 -3.52 0
v -6.4 -3.2 0
v -6.08 -3.2 0
v -6.4 -3.52 0
v -6.72 -3.52 0
v -6.72 -3.2 0
v -6.4 -3.2 0
v -6.72 -3.52 0
v -7.04 -3.52 0
v -7.04 -3.2 0
v -6.72 -3.2 0
v -7.04 -3.52 0
v -7.36 -3.52 0
v -7.36 -3.2 0
v -7.04 -3.2 0
v -7.36 -3.52 0
v -7.68 -3.52 0
v -7.68 -3.2 0
v -7.36 -3.2 0
v -0.64 -3.84 0
v -0.96 -3.84 0
v -0.96 -3.52 0
v -0.64 -3.52 0
v -0.96 -3.84 0
v -1.28 -3.84 0
v -1.28 -3.52 0
v -0.96 -3.52 0
v -1.28 -3.84 0
v -1.6 -3.84 0
v -1.6 -3.52 0
v -1.28 -3.52 0
v -1.6 -3.84 0
v -1.92 -3.84 0
v -1.92 -3.52 0
v -1.6 -3.52 0
v -1.92 -3.84 0
v -2.24 -3.84 0
v -2.24 -3.52 0
v -1.92 -3.52 0
v -2.24 -3.84 0
v -2.56 -3.84 0
v -2.56 -3.52 0
v -2.24 -3.52 0
v -2.56 -3.84 0
v -2.88 -3.84 0
v -2.88 -3.52 0
v -2.56 -3.52 0
v -2.88 -3.84 0
v -3.2 -3.84 0
v -3.2 -3.52 0
v -2.88 -3.52 0
v -3.2 -3.84 0
v -3.52 -3.84 0
v -3.52 -3.52 0
v -3.2 -3.52 0
v -3.52 -3.84 0
v -3.84 -3.84 0
v -3.84 -3.52 0
v -3.52 -3.52 0
v -3.84 -3.84 0
v -4.16 -3.84 0
v -4.16 -3.52 0
v -3.84 -3.52 0
v -4.16 -3.84 0
v -4.48 -3.84 0
v -4.48 -3.52 0
v -4.16 -3.52 0
v -4.48 -3.84 0
v -4.8 -3.84 0
v -4.8 -3.52 0
v -4.48 -3.52 0
v -4.8 -3.84 0
v -5.12 -3.84 0
v -5.12 -3.52 0
v -4.8 -3.52 0
v -5.12 -3.84 0
v -5.44 -3.84 0
v -5.44 -3.52 0
v -5.12 -3.52 0
v -5.44 -3.84 0
v -5.76 -3.84 0
v -5.76 -3.52 0
v -5.44 -3.52 0
v -5.76 -3.84 0
v -6.08 -3.84 0
v -6.08 -3.52 0
v -5.76 -3.52 0
v -6.08 -3.84 0
v -6.4 -3.84 0
v -6.4 -3.52 0
v -6.08 -3.52 0
v -6.4 -3.84 0
v -6.72 -3.84 0
v -6.72 -3.52 0
v -6.4 -3.52 0
v -6.72 -3.84 0
v -7.04 -3.84 0
v -7.04 -3.52 0
v -6.72 -3.52 0
v -7.04 -3.84 0
v -7.36 -3.84 0
v -7.36 -3.52 0
v -7.04 -3.52 0
v -0.64 -4.16 0
v -0.96 -4.16 0
v -0.96 -3.84 0
v -0.64 -3.84 0
v -0.96 -4.16 0
v -1.28 -4.16 0
v -1.28 -3.84 0
v -0.96 -3.84 0
v -1.28 -4.16 0
v -1.6 -4.16 0
v -1.6 -3.84 0
v -1.28 -3.84 0
v -1.6 -4.16 0
v -1.92 -4.16 0
v -1.92 -3.84 0
v -1.6 -3.84 0
v -4.8 -4.16 0
v -5.12 -4.16 0
v -5.12 -3.84 0
v -4.8 -3.84 0
v -5.12 -4.16 0
v -5.44 -4.16 0
v -5.44 -3.84 0
v -5.12 -3.84 0
v -5.44 -4.16 0
v -5.76 -4.16 0
v -5.76 -3.84 0
v -5.44 -3.84 0
v -5.76 -4.16 0
v -6.08 -4.16 0
v -6.08 -3.84 0
v -5.76 -3.84 0
v -6.08 -4.16 0
v -6.4 -4.16 0
v -6.4 -3.84 0
v -6.08 -3.84 0
v -6.4 -4.16 0
v -6.72 -4.16 0
v -6.72 -3.84 0
v -6.4 -3.84 0
v -6.72 -4.16 0
v -7.04 -4.16 0
v -7.04 -3.84 0
v -6.72 -3.84 0
v -7.04 -4.16 0
v -7.36 -4.16 0
v -7.36 -3.84 0
v -7.04 -3.84 0
v -0.96 -4.48 0
v -1.28 -4.48 0
v -1.28 -4.16 0
v -0.96 -4.16 0
v -1.28 -4.48 0
v -1.6 -4.48 0
v -1.6 -4.16 0
v -1.28 -4.16 0
v -1.6 -4.48 0
v -1.92 -4.48 0
v -1.92 -4.16 0
v -1.6 -4.16 0
v -5.76 -4.48 0
v -6.08 -4.48 0
v -6.08 -4.16 0
v -5.76 -4.16 0
v -6.08 -4.48 0
v -6.4 -4.48 0
v -6.4 -4.16 0
v -6.08 -4.16 0
v -6.4 -4.48 0
v -6.72 -4.48 0
v -6.72 -4.16 0
v -6.4 -4.16 0
v -6.72 -4.48 0
v -7.04 -4.48 0
v -7.04 -4.16 0
v -6.72 -4.16 0

# Texture cooridinates (Count = 22)
vt 0 0.5
vt 0.3333333 0.5
vt 0.3333333 0.6666666
vt 0 0.6666666
vt 0.6666667 0.5
vt 0.6666667 0.6666666
vt 1 0.5
vt 1 0.6666666
vt 0 0.3333333
vt 0.3333333 0.3333333
vt 0.6666667 0.3333333
vt 0.6666667 0.8333333
vt 0.3333333 0.8333333
vt 1 0.3333333
vt 0.6666667 1
vt 0.3333333 1
vt 0.6666667 0.1666667
vt 1 0.1666667
vt 1 0.8333333
vt 0 0.1666667
vt 0.3333333 0.1666667
vt 1 1

# Normal
vn 0 0 -1

# Mesh description
g forest-4_mesh_0006

# Faces
f 1/1/1 2/2/1 3/3/1 4/4/1
f 5/2/1 6/5/1 7/6/1 8/3/1
f 9/5/1 10/7/1 11/8/1 12/6/1
f 13/9/1 14/10/1 15/2/1 16/1/1
f 17/10/1 18/11/1 19/5/1 20/2/1
f 21/3/1 22/6/1 23/12/1 24/13/1
f 25/5/1 26/7/1 27/8/1 28/6/1
f 29/9/1 30/10/1 31/2/1 32/1/1
f 33/10/1 34/11/1 35/5/1 36/2/1
f 37/10/1 38/11/1 39/5/1 40/2/1
f 41/11/1 42/14/1 43/7/1 44/5/1
f 45/9/1 46/10/1 47/2/1 48/1/1
f 49/10/1 50/11/1 51/5/1 52/2/1
f 53/10/1 54/11/1 55/5/1 56/2/1
f 57/11/1 58/14/1 59/7/1 60/5/1
f 61/9/1 62/10/1 63/2/1 64/1/1
f 65/10/1 66/11/1 67/5/1 68/2/1
f 69/13/1 70/12/1 71/15/1 72/16/1
f 73/17/1 74/18/1 75/14/1 76/11/1
f 77/9/1 78/10/1 79/2/1 80/1/1
f 81/10/1 82/11/1 83/5/1 84/2/1
f 85/3/1 86/6/1 87/12/1 88/13/1
f 89/5/1 90/7/1 91/8/1 92/6/1
f 93/1/1 94/2/1 95/3/1 96/4/1
f 97/6/1 98/8/1 99/19/1 100/12/1
f 101/10/1 102/11/1 103/5/1 104/2/1
f 105/10/1 106/11/1 107/5/1 108/2/1
f 109/11/1 110/14/1 111/7/1 112/5/1
f 113/9/1 114/10/1 115/2/1 116/1/1
f 117/10/1 118/11/1 119/5/1 120/2/1
f 121/10/1 122/11/1 123/5/1 124/2/1
f 125/10/1 126/11/1 127/5/1 128/2/1
f 129/3/1 130/6/1 131/12/1 132/13/1
f 133/5/1 134/7/1 135/8/1 136/6/1
f 137/9/1 138/10/1 139/2/1 140/1/1
f 141/10/1 142/11/1 143/5/1 144/2/1
f 145/10/1 146/11/1 147/5/1 148/2/1
f 149/10/1 150/11/1 151/5/1 152/2/1
f 153/10/1 154/11/1 155/5/1 156/2/1
f 157/3/1 158/6/1 159/12/1 160/13/1
f 161/5/1 162/7/1 163/8/1 164/6/1
f 165/1/1 166/2/1 167/3/1 168/4/1
f 169/9/1 170/10/1 171/2/1 172/1/1
f 173/10/1 174/11/1 175/5/1 176/2/1
f 177/10/1 178/11/1 179/5/1 180/2/1
f 181/10/1 182/11/1 183/5/1 184/2/1
f 185/10/1 186/11/1 187/5/1 188/2/1
f 189/10/1 190/11/1 191/5/1 192/2/1
f 193/3/1 194/6/1 195/12/1 196/13/1
f 197/2/1 198/5/1 199/6/1 200/3/1
f 201/2/1 202/5/1 203/6/1 204/3/1
f 205/2/1 206/5/1 207/6/1 208/3/1
f 209/2/1 210/5/1 211/6/1 212/3/1
f 213/2/1 214/5/1 215/6/1 216/3/1
f 217/2/1 218/5/1 219/6/1 220/3/1
f 221/2/1 222/5/1 223/6/1 224/3/1
f 225/2/1 226/5/1 227/6/1 228/3/1
f 229/2/1 230/5/1 231/6/1 232/3/1
f 233/2/1 234/5/1 235/6/1 236/3/1
f 237/5/1 238/7/1 239/8/1 240/6/1
f 241/1/1 242/2/1 243/3/1 244/4/1
f 245/6/1 246/8/1 247/19/1 248/12/1
f 249/10/1 250/11/1 251/5/1 252/2/1
f 253/20/1 254/21/1 255/10/1 256/9/1
f 257/12/1 258/19/1 259/22/1 260/15/1
f 261/10/1 262/11/1 263/5/1 264/2/1
f 265/10/1 266/11/1 267/5/1 268/2/1
f 269/10/1 270/11/1 271/5/1 272/2/1
f 273/10/1 274/11/1 275/5/1 276/2/1
f 277/10/1 278/11/1 279/5/1 280/2/1
f 281/10/1 282/11/1 283/5/1 284/2/1
f 285/10/1 286/11/1 287/5/1 288/2/1
f 289/10/1 290/11/1 291/5/1 292/2/1
f 293/10/1 294/11/1 295/5/1 296/2/1
f 297/10/1 298/11/1 299/5/1 300/2/1
f 301/10/1 302/11/1 303/5/1 304/2/1
f 305/10/1 306/11/1 307/5/1 308/2/1
f 309/10/1 310/11/1 311/5/1 312/2/1
f 313/10/1 314/11/1 315/5/1 316/2/1
f 317/10/1 318/11/1 319/5/1 320/2/1
f 321/3/1 322/6/1 323/12/1 324/13/1
f 325/2/1 326/5/1 327/6/1 328/3/1
f 329/2/1 330/5/1 331/6/1 332/3/1
f 333/6/1 334/8/1 335/19/1 336/12/1
f 337/10/1 338/11/1 339/5/1 340/2/1
f 341/10/1 342/11/1 343/5/1 344/2/1
f 345/9/1 346/10/1 347/2/1 348/1/1
f 349/10/1 350/11/1 351/5/1 352/2/1
f 353/10/1 354/11/1 355/5/1 356/2/1
f 357/13/1 358/12/1 359/15/1 360/16/1
f 361/21/1 362/17/1 363/11/1 364/10/1
f 365/21/1 366/17/1 367/11/1 368/10/1
f 369/21/1 370/17/1 371/11/1 372/10/1
f 373/21/1 374/17/1 375/11/1 376/10/1
f 377/21/1 378/17/1 379/11/1 380/10/1
f 381/21/1 382/17/1 383/11/1 384/10/1
f 385/21/1 386/17/1 387/11/1 388/10/1
f 389/21/1 390/17/1 391/11/1 392/10/1
f 393/21/1 394/17/1 395/11/1 396/10/1
f 397/12/1 398/19/1 399/22/1 400/15/1
f 401/10/1 402/11/1 403/5/1 404/2/1
f 405/10/1 406/11/1 407/5/1 408/2/1
f 409/10/1 410/11/1 411/5/1 412/2/1
f 413/10/1 414/11/1 415/5/1 416/2/1
f 417/10/1 418/11/1 419/5/1 420/2/1
f 421/10/1 422/11/1 423/5/1 424/2/1
f 425/13/1 426/12/1 427/15/1 428/16/1
f 429/20/1 430/21/1 431/10/1 432/9/1
f 433/12/1 434/19/1 435/22/1 436/15/1
f 437/10/1 438/11/1 439/5/1 440/2/1
f 441/11/1 442/14/1 443/7/1 444/5/1
f 445/20/1 446/21/1 447/10/1 448/9/1
f 449/21/1 450/17/1 451/11/1 452/10/1
f 453/21/1 454/17/1 455/11/1 456/10/1
f 457/12/1 458/19/1 459/22/1 460/15/1
f 461/10/1 462/11/1 463/5/1 464/2/1
f 465/10/1 466/11/1 467/5/1 468/2/1
f 469/13/1 470/12/1 471/15/1 472/16/1
f 473/17/1 474/18/1 475/14/1 476/11/1
f 477/20/1 478/21/1 479/10/1 480/9/1
f 481/21/1 482/17/1 483/11/1 484/10/1
f 485/17/1 486/18/1 487/14/1 488/11/1
f 489/20/1 490/21/1 491/10/1 492/9/1
f 493/21/1 494/17/1 495/11/1 496/10/1
f 497/21/1 498/17/1 499/11/1 500/10/1
f 501/17/1 502/18/1 503/14/1 504/11/1

